<?xml version="1.0" encoding="UTF-8"?>
<svg version="1.1" xmlns="http://www.w3.org/2000/svg" width="2000" height="512">
<path d="M0 0 C1.18641065 -0.00829899 2.3728213 -0.01659798 3.59518379 -0.02514845 C4.9050732 -0.02409761 6.21496261 -0.02304676 7.56454563 -0.02196407 C8.96514316 -0.0278459 10.3657373 -0.03458449 11.76632696 -0.04210895 C15.62432855 -0.06021703 19.48226182 -0.06570706 23.34030068 -0.06909573 C27.49800419 -0.0748456 31.65566362 -0.09197086 35.81334019 -0.10744381 C45.86042625 -0.14222887 55.90750876 -0.15778832 65.95464191 -0.17156711 C70.68652612 -0.17852661 75.41840596 -0.18768397 80.15028667 -0.1966753 C95.88223036 -0.22588632 111.61416975 -0.25067677 127.346138 -0.26129913 C128.85713499 -0.26233517 128.85713499 -0.26233517 130.39865718 -0.26339215 C131.40840463 -0.26408416 132.41815208 -0.26477618 133.45849794 -0.26548916 C135.50463514 -0.26690115 137.55077234 -0.26832196 139.59690952 -0.26975155 C140.61186493 -0.27045672 141.62682034 -0.27116189 142.67253197 -0.27188843 C159.10548698 -0.28412951 175.53821083 -0.32690128 191.97106998 -0.38269175 C208.84457476 -0.43951257 225.71796281 -0.46995241 242.59156424 -0.47431129 C252.0645067 -0.47739093 261.53712839 -0.49184984 271.00997829 -0.53559208 C279.0798552 -0.57275076 287.14932455 -0.58584437 295.21927475 -0.56788719 C299.33441241 -0.55945077 303.44871851 -0.5621787 307.56374645 -0.59570599 C311.33774466 -0.62618133 315.11030084 -0.62379897 318.88430817 -0.59621798 C320.88254486 -0.58986984 322.88080191 -0.61777217 324.87883133 -0.64724451 C335.43745273 -0.51484955 342.37361164 2.57775043 350.04309201 9.81883764 C357.05354902 17.90315063 357.62513885 25.55190012 357.48843479 35.76880741 C357.4995394 37.41572433 357.51455746 39.06261866 357.53311807 40.70946842 C357.57243266 45.20704417 357.55607615 49.70291364 357.53003395 54.20052159 C357.51166668 59.06167456 357.54522547 63.92251715 357.57193089 68.78359318 C357.61573433 78.29558274 357.61090001 87.80694701 357.58824214 97.31898718 C357.5706272 105.05224615 357.5702696 112.78532717 357.58213329 120.5185957 C357.58463502 122.17158048 357.58463502 122.17158048 357.58718729 123.8579589 C357.59063724 126.09686904 357.59412087 128.33577912 357.59763781 130.57468916 C357.62845175 151.55426623 357.60338796 172.53349484 357.5596504 193.51303036 C357.52353322 211.49987532 357.53753519 229.48612048 357.58763218 247.47292423 C357.64584396 268.37751031 357.67123135 289.28172949 357.64577085 310.18639332 C357.64315565 312.41722423 357.64058918 314.6480552 357.63807201 316.87888622 C357.63620036 318.52515255 357.63620036 318.52515255 357.6342909 320.20467679 C357.62781923 327.92480989 357.64487089 335.64468402 357.67124081 343.36476803 C357.70283395 352.77881697 357.69879316 362.19204997 357.64948543 371.606036 C357.62525375 376.40606416 357.6167908 381.20469566 357.6520319 386.00468731 C357.68389145 390.40552667 357.66897825 394.80372255 357.61792735 399.20435835 C357.60751545 400.78966586 357.61367946 402.37519492 357.63879373 403.96033769 C357.78539183 413.96299367 356.09345374 421.08149412 349.19617921 428.56030971 C340.55944746 436.73763554 332.82897848 438.14901314 321.18235874 438.0275507 C319.77825788 438.03447713 318.37416793 438.04401516 316.9701004 438.05591416 C313.13935422 438.08081353 309.30951221 438.06865068 305.47876406 438.04999685 C301.33686204 438.03636598 297.19511054 438.0574028 293.05323887 438.07387638 C284.95024915 438.10050281 276.84759361 438.09481743 268.744591 438.07740054 C262.1569144 438.06382909 255.56933121 438.06202164 248.98164463 438.06854343 C248.04268815 438.06946283 247.10373167 438.07038223 246.13632196 438.07132949 C244.22862185 438.07324792 242.32092177 438.0751932 240.41322172 438.07716504 C222.54072585 438.09425867 204.66841488 438.07462694 186.79594934 438.04236284 C171.4732439 438.01555765 156.15081122 438.02021424 140.82811069 438.0478754 C123.01791394 438.08001222 105.20787909 438.09261086 87.39765739 438.07420182 C85.49712533 438.0722906 83.59659325 438.07040438 81.69606113 438.06854343 C80.29355395 438.06715495 80.29355395 438.06715495 78.86271328 438.06573842 C72.28586232 438.06056617 65.70911439 438.06928426 59.1322794 438.08342075 C51.11305343 438.10027931 43.09417966 438.09563122 35.07499385 438.06373629 C30.98636962 438.04800839 26.8983318 438.04172167 22.80971241 438.0616312 C19.06144352 438.07960684 15.31430045 438.06953037 11.56613266 438.03776589 C9.57952795 438.02796596 7.5928441 438.04739187 5.60632324 438.06810927 C-2.74164489 437.95921443 -8.91354278 436.32863593 -15.66114712 431.26564884 C-22.84975962 423.73486997 -26.78146575 416.17709925 -26.79257488 405.7518816 C-26.79462752 405.09626238 -26.79668015 404.44064316 -26.79879498 403.76515669 C-26.80446859 401.55890141 -26.80300729 399.35270848 -26.80158901 397.14644718 C-26.80417244 395.55239803 -26.80718554 393.95834952 -26.81059241 392.36430192 C-26.81866827 387.97637192 -26.82045231 383.58845826 -26.82118988 379.20052171 C-26.82303941 374.47101066 -26.83058623 369.74150813 -26.8373251 365.01200199 C-26.85091296 354.66699147 -26.8569338 344.32198482 -26.86133575 333.97696686 C-26.86409733 327.51904754 -26.86833452 321.06112971 -26.87283993 314.6032114 C-26.88503304 296.72748121 -26.89533237 278.85175222 -26.89871502 260.97601795 C-26.89893459 259.83170538 -26.89915415 258.6873928 -26.89938037 257.50840409 C-26.89959865 256.36133529 -26.89981693 255.2142665 -26.90004182 254.03243804 C-26.90048529 251.70799398 -26.90093185 249.38354993 -26.90138149 247.05910587 C-26.90160292 245.90609845 -26.90182435 244.75309102 -26.90205249 243.56514397 C-26.90600111 224.87929006 -26.9234569 206.19347513 -26.94674101 187.50763628 C-26.97044668 168.328899 -26.98291651 149.15018128 -26.98408294 129.97142911 C-26.98500012 119.20094795 -26.99076344 108.43051758 -27.00890255 97.66005039 C-27.02429291 88.48931421 -27.02943027 79.31864451 -27.02116445 70.14789787 C-27.01725422 65.46846315 -27.01820575 60.78916237 -27.03222179 56.10974407 C-27.0449382 51.82506077 -27.0437831 47.54061237 -27.03163108 43.2559295 C-27.02967017 41.70678957 -27.03277072 40.15763314 -27.04147545 38.60851642 C-27.10381368 26.76367056 -25.62806863 17.53469086 -17.66114712 8.26564884 C-14.80822505 5.9784344 -11.818457 4.09989554 -8.66114712 2.26564884 C-5.2404503 -0.0148157 -4.0205623 0.01186762 0 0 Z M300.96385288 29.76564884 C297.49633599 34.72054797 297.32548974 39.41260308 298.33885288 45.26564884 C299.67269925 49.28200847 301.84715435 51.83112456 305.02635288 54.64064884 C310.4758248 57.31397469 315.63922668 58.06164298 321.52635288 56.32814884 C326.24712646 54.24156692 329.04269349 50.81837867 331.33885288 46.26564884 C332.74258745 41.66802383 332.59412208 38.20695401 331.33885288 33.57814884 C328.39816789 28.70763933 324.79293241 25.08367535 319.33885288 23.26564884 C311.5814279 22.49729437 306.25259131 23.74955479 300.96385288 29.76564884 Z M109.33885288 72.26564884 C109.33520725 73.31277042 109.33156162 74.35989201 109.32780552 75.43874454 C109.29080175 85.325686 109.23297023 95.21231755 109.15495014 105.09902287 C109.11550662 110.18143312 109.08330276 115.26367092 109.06785679 120.34621525 C109.05266969 125.25475884 109.01818754 130.16282823 108.97054386 135.07116032 C108.95575125 136.94011651 108.94781309 138.80914041 108.94696903 140.67815495 C108.94459121 143.30418297 108.91744704 145.92890911 108.88475132 148.55471134 C108.89229687 149.70378719 108.89229687 149.70378719 108.89999485 150.8760767 C108.79572924 156.31837952 107.52865032 160.78622608 104.33885288 165.26564884 C97.01245271 171.1810499 88.30472355 170.91436735 79.33885288 170.26564884 C74.29957626 169.33170291 70.73620879 167.96019292 67.42869663 163.94924259 C64.69939233 159.6197788 63.35581536 156.35046121 62.33885288 151.26564884 C50.45885288 151.26564884 38.57885288 151.26564884 26.33885288 151.26564884 C26.33885288 163.79134373 29.85654789 174.91458132 38.23338413 184.41408634 C52.32927287 198.06539231 70.3727366 200.7830079 89.18650913 200.61525822 C105.76384109 200.18872047 120.75257903 196.66978647 133.33885288 185.26564884 C142.00121367 175.23374484 145.43816021 163.87226491 145.56004429 150.81935978 C145.57730312 149.56246342 145.57730312 149.56246342 145.59491062 148.28017521 C145.6314925 145.52016146 145.66119724 142.76012465 145.69041538 140.00002384 C145.71353635 138.08142118 145.73692674 136.16282174 145.76057529 134.2442255 C145.80895882 130.22958539 145.85390628 126.21492506 145.89647007 122.20021915 C145.95145306 117.04263063 146.01526241 111.88519508 146.08164501 106.7277422 C146.13158481 102.76969561 146.17676289 98.81160577 146.22048664 94.85348606 C146.2421104 92.95077334 146.26526628 91.04807741 146.28995228 89.14540195 C146.32365109 86.49508057 146.35092875 83.84477076 146.37645054 81.19435978 C146.38782551 80.40164677 146.39920048 79.60893375 146.41092014 78.79219913 C146.42527906 76.94991504 146.38777032 75.10733936 146.33885288 73.26564884 C145.17136289 71.87041029 145.17136289 71.87041029 141.92063999 72.15212345 C140.402483 72.15228256 138.88432059 72.15797658 137.36619663 72.16799259 C136.16973263 72.17011501 136.16973263 72.17011501 134.94909763 72.17228031 C132.39147853 72.17789568 129.8339457 72.19045072 127.27635288 72.20314884 C125.54653643 72.20816187 123.81671862 72.21272511 122.08689976 72.21682072 C117.83751735 72.22787009 113.58819976 72.24514498 109.33885288 72.26564884 Z M207.33885288 72.26564884 C203.4585508 80.50477789 199.6233058 88.7457808 196.08885288 97.14064884 C192.74974127 104.99952029 189.34882699 112.82870997 185.90135288 120.64064884 C181.09252267 131.54189122 176.32865772 142.46197531 171.58592319 153.39211369 C169.87073999 157.34428798 168.1538296 161.29571012 166.43626499 165.24685001 C165.59022164 167.19340882 164.74466849 169.14018077 163.8996439 171.08718204 C161.99919135 175.46304909 160.09095327 179.8349306 158.15525913 184.19533634 C157.65965488 185.31500797 157.65965488 185.31500797 157.15403843 186.45729923 C156.54538436 187.83028751 155.93375863 189.20196388 155.31858921 190.57204533 C153.81994792 193.79470035 153.81994792 193.79470035 153.33885288 197.26564884 C165.21885288 197.26564884 177.09885288 197.26564884 189.33885288 197.26564884 C193.37239017 189.34420057 193.37239017 189.34420057 196.65135288 181.26564884 C196.97748569 180.35814884 197.30361851 179.45064884 197.63963413 178.51564884 C198.43777429 176.34002231 198.43777429 176.34002231 198.33885288 174.26564884 C218.13885288 174.26564884 237.93885288 174.26564884 258.33885288 174.26564884 C259.32885288 177.56564884 260.31885288 180.86564884 261.33885288 184.26564884 C263.31885288 188.55564884 265.29885288 192.84564884 267.33885288 197.26564884 C279.54885288 197.26564884 291.75885288 197.26564884 304.33885288 197.26564884 C301.23648153 187.95853479 297.69699301 179.12436612 293.54979038 170.24611759 C290.34387939 163.3216641 287.29515669 156.33581872 284.27635288 149.32814884 C283.71141905 148.02013255 283.14631071 146.71219162 282.58104038 145.40432072 C281.41224049 142.69969339 280.2441753 139.99475061 279.07664585 137.28957462 C277.40815241 133.42473371 275.73566846 129.5616321 274.06150913 125.69924259 C273.66109661 124.77543797 273.66109661 124.77543797 273.25259495 123.83297062 C272.18205931 121.36339745 271.11132813 118.89390919 270.04036045 116.42452335 C267.2184655 109.91786759 264.39943771 103.41003054 261.59349155 96.8964777 C260.38472791 94.09103921 259.1742394 91.28634653 257.96360874 88.48171329 C257.38347694 87.13638391 256.80420323 85.79068416 256.22581577 84.44460392 C255.42708331 82.58585833 254.62523597 80.72845217 253.82322788 78.87111759 C253.36657749 77.81046085 252.9099271 76.74980412 252.43943882 75.65700626 C251.55054924 73.36177383 251.55054924 73.36177383 250.33885288 72.26564884 C248.98790306 72.17295885 247.63218198 72.14817558 246.27806187 72.15212345 C245.41724506 72.15219898 244.55642826 72.15227451 243.6695261 72.15235233 C242.26640926 72.16009426 242.26640926 72.16009426 240.83494663 72.16799259 C239.40542416 72.17011501 239.40542416 72.17011501 237.94702244 72.17228031 C234.89010123 72.17789732 231.83325211 72.19045268 228.77635288 72.20314884 C226.70929665 72.20816165 224.64223927 72.21272494 222.57518101 72.21682072 C217.496377 72.22787228 212.41762718 72.24514829 207.33885288 72.26564884 Z M31.33885288 240.26564884 C34.47032486 246.11471588 37.83151681 251.65598454 41.65135288 257.07814884 C42.62596527 258.47873561 43.59991924 259.87978076 44.57322788 261.28127384 C45.04566929 261.95996525 45.51811069 262.63865665 46.00486851 263.33791447 C49.18522342 267.93382999 52.25273935 272.60622252 55.33885288 277.26564884 C56.42120542 278.89916245 57.50385172 280.53249351 58.59275913 282.16164494 C59.40082204 283.38474016 60.19455106 284.61739603 60.97557163 285.857934 C63.59899302 289.95059025 66.42712547 293.51427799 69.72166538 297.09377384 C87.09819781 317.25200404 84.33590542 339.94873761 83.33885288 365.26564884 C95.21885288 365.26564884 107.09885288 365.26564884 119.33885288 365.26564884 C119.29502476 361.89088322 119.25119663 358.51611759 119.20604038 355.03908634 C119.19762979 351.72578057 119.20641085 348.41292737 119.21678257 345.09963322 C119.2148506 342.81862313 119.19538833 340.5375512 119.15721226 338.25685978 C118.9165981 323.00459572 119.90131416 313.61390698 130.33885288 302.26564884 C131.56702593 300.43816936 132.76277246 298.5877509 133.90135288 296.70314884 C136.69103875 292.23965145 139.63504891 287.91018043 142.64939976 283.59572697 C147.52862949 276.59153956 152.22884997 269.46771123 156.94920444 262.35598087 C158.19757536 260.47816081 159.45025278 258.60335756 160.70604038 256.73049259 C161.73084507 255.20101994 161.73084507 255.20101994 162.77635288 253.64064884 C163.35256382 252.78213322 163.92877476 251.92361759 164.52244663 251.03908634 C166.85147034 247.48294262 169.09784068 243.87770632 171.33885288 240.26564884 C150.23838116 237.24405035 150.23838116 237.24405035 130.34227085 242.05275822 C125.72070176 246.74330596 123.1144721 252.42089526 120.59520054 258.43898869 C118.65946059 262.7942155 116.02070355 266.59282867 113.33885288 270.51564884 C112.45040144 271.8826316 111.5660568 273.25229528 110.68650913 274.62502384 C110.08346958 275.55991642 110.08346958 275.55991642 109.46824741 276.51369572 C108.44403181 278.10249191 107.42068919 279.69185079 106.39744663 281.28127384 C105.86248569 282.10111759 105.32752476 282.92096134 104.77635288 283.76564884 C104.34193882 284.43596134 103.90752476 285.10627384 103.45994663 285.79689884 C102.33885288 287.26564884 102.33885288 287.26564884 100.33885288 288.26564884 C100.12744663 287.62498478 99.91604038 286.98432072 99.69822788 286.32424259 C97.78324772 282.01553722 95.19292781 278.24918759 92.58885288 274.32814884 C91.42112853 272.55280241 90.2545038 270.77673233 89.08885288 269.00002384 C88.47912632 268.07125431 87.86939976 267.14248478 87.24119663 266.18557072 C83.35139344 260.21508224 79.55297987 254.18593482 75.74607944 248.16237736 C74.90254917 246.83097721 74.90254917 246.83097721 74.04197788 245.47268009 C73.54343296 244.68353214 73.04488804 243.89438419 72.53123569 243.08132267 C71.4654652 241.32462872 71.4654652 241.32462872 70.33885288 240.26564884 C67.45451468 240.17699677 64.5942313 240.15043588 61.70994663 240.16799259 C60.84571583 240.16940754 59.98148502 240.17082249 59.09106541 240.17228031 C56.31945996 240.17789645 53.54793408 240.19045165 50.77635288 240.20314884 C48.90200509 240.20816176 47.02765603 240.21272503 45.15330601 240.21682072 C40.54845745 240.22787113 35.94366867 240.24514655 31.33885288 240.26564884 Z M202.33885288 240.26564884 C197.94132792 249.68891661 193.63796141 259.07456071 189.58885288 268.64064884 C188.54297755 271.09681142 187.49641301 273.55266055 186.44822788 276.00783634 C186.18703159 276.61991947 185.9258353 277.2320026 185.65672398 277.86263371 C183.09698306 283.8508266 180.47331819 289.81004774 177.83885288 295.76564884 C173.4524174 305.6862393 169.16808477 315.64765116 164.91600132 325.62648869 C162.29412263 331.76161632 159.63651014 337.87818812 156.91307163 343.96877384 C156.63306812 344.59530857 156.35306461 345.2218433 156.06457615 345.86736393 C154.71420508 348.88556249 153.35804188 351.90092964 151.99534702 354.91359806 C151.51573521 355.98110294 151.03612339 357.04860783 150.54197788 358.14846134 C150.11562046 359.09092716 149.68926304 360.03339298 149.24998569 361.00441837 C148.21427365 363.16851135 148.21427365 363.16851135 148.33885288 365.26564884 C160.21885288 365.59564884 172.09885288 365.92564884 184.33885288 366.26564884 C186.81385288 360.32564884 186.81385288 360.32564884 189.33885288 354.26564884 C191.65135288 349.20314884 191.65135288 349.20314884 192.63963413 347.10549259 C193.5164791 345.12630208 193.5164791 345.12630208 193.33885288 342.26564884 C222.54385288 342.76064884 222.54385288 342.76064884 252.33885288 343.26564884 C255.30885288 350.52564884 258.27885288 357.78564884 261.33885288 365.26564884 C273.87885288 365.26564884 286.41885288 365.26564884 299.33885288 365.26564884 C296.79685244 357.61573187 296.79685244 357.61573187 293.65916538 350.36330509 C291.17728981 345.09142215 288.78537683 339.79029284 286.45604038 334.44924259 C286.1163271 333.67039707 285.77661381 332.89155155 285.42660618 332.08910465 C284.35444653 329.62765785 283.28407691 327.16543779 282.21385288 324.70314884 C281.45713939 322.96517523 280.7003843 321.22721973 279.94358921 319.48928165 C275.12048082 308.40511952 270.34800309 297.30037453 265.6039896 286.18215275 C260.75363036 274.84336697 255.74209474 263.57797956 250.70408726 252.32155704 C248.90990203 248.30549545 247.12530136 244.28515792 245.33885288 240.26564884 C231.14885288 240.26564884 216.95885288 240.26564884 202.33885288 240.26564884 Z " fill="#FFFFFF" transform="translate(107.66114711761475,37.73435115814209)"/>
<path d="M0 0 C13.014375 -0.04125 26.02875 -0.0825 39.4375 -0.125 C43.51150146 -0.14320801 47.58550293 -0.16141602 51.78295898 -0.18017578 C56.84777832 -0.18920898 56.84777832 -0.18920898 59.23622131 -0.19088745 C60.86631876 -0.19391204 62.49641242 -0.20084611 64.1264801 -0.21115112 C84.42272741 -0.33278446 107.94136035 -0.27897139 123.8125 14.25 C131.09804077 22.23020861 131.79226333 30.29535173 131.375 40.7421875 C130.77553514 49.35574815 127.2502053 54.49699802 121.0390625 60.3359375 C118.46530224 62.43636254 116.07625312 63.76949875 113 65 C115.02787387 67.02787387 116.72503474 67.99419331 119.25 69.3125 C128.11840833 74.21570653 133.47360243 80.13039932 136.3125 89.9375 C138.44964834 100.33554867 136.91946961 110.77773025 131.25 119.8125 C123.57473028 130.36599586 112.56319978 135.42117067 100 138 C87.70610581 139.907297 75.60477718 140.27184584 63.18359375 140.1953125 C61.55277647 140.19236061 59.92195727 140.19032726 58.2911377 140.18920898 C52.33989565 140.17885437 46.38869455 140.15093313 40.4375 140.125 C27.093125 140.08375 13.74875 140.0425 0 140 C0 93.8 0 47.6 0 0 Z M39 30 C39 37.92 39 45.84 39 54 C44.38989591 54.0691998 49.77822526 54.1288329 55.16821289 54.16479492 C56.99834441 54.17979997 58.82844046 54.20021059 60.65844727 54.22631836 C63.30233558 54.26306906 65.94574492 54.27980937 68.58984375 54.29296875 C69.39646957 54.30845261 70.2030954 54.32393646 71.03416443 54.33988953 C77.77433655 54.34184725 84.36096321 53.37513311 89.5 48.75 C91.35445038 45.3501743 91.930814 42.87441599 92 39 C90.28078332 34.79747033 88.0604659 32.93355519 84 31 C79.29170642 29.70930948 74.60275101 29.87291891 69.76171875 29.90234375 C68.88095169 29.9037587 68.00018463 29.90517365 67.09272766 29.90663147 C64.29094997 29.91221063 61.48925338 29.92475929 58.6875 29.9375 C56.78320428 29.94251769 54.87890731 29.94708013 52.97460938 29.95117188 C48.31635017 29.96132059 43.65826545 29.98090005 39 30 Z M39 82 C39 91.24 39 100.48 39 110 C44.81685227 110.04610451 50.63306126 110.08587215 56.44995117 110.10986328 C58.42555906 110.1198729 60.40115231 110.13348469 62.37670898 110.15087891 C65.22904082 110.17535009 68.08117547 110.18653376 70.93359375 110.1953125 C72.24196449 110.21079636 72.24196449 110.21079636 73.57676697 110.22659302 C80.36387597 110.2278133 86.87088624 109.66442221 92.9375 106.4375 C95.92608505 102.90553585 96.81132279 99.59617694 97 95 C96.46570136 91.15169713 95.412367 88.17470909 92.375 85.6484375 C87.81935477 82.91897764 83.73422049 81.87145339 78.50683594 81.88647461 C77.62622498 81.88655014 76.74561401 81.88662567 75.83831787 81.88670349 C74.42561615 81.89444542 74.42561615 81.89444542 72.984375 81.90234375 C72.01340881 81.9037587 71.04244263 81.90517365 70.04205322 81.90663147 C66.94467065 81.91222337 63.84736068 81.92477441 60.75 81.9375 C58.64843854 81.94251605 56.54687596 81.94707877 54.4453125 81.95117188 C49.2968246 81.96133872 44.14849347 81.9809158 39 82 Z " fill="#FFFFFF" transform="translate(1380,119)"/>
<path d="M0 0 C11.818125 -0.04125 23.63625 -0.0825 35.8125 -0.125 C39.50284424 -0.14320801 43.19318848 -0.16141602 46.99536133 -0.18017578 C111.06341728 -0.36623157 111.06341728 -0.36623157 133 21 C148.47668503 37.69109645 150.85483977 57.11207643 150.17919922 79.03173828 C149.20922896 95.09835742 142.2112398 107.74893342 131 119 C130.47019531 119.55300781 129.94039062 120.10601562 129.39453125 120.67578125 C121.31936164 128.37729262 110.37329251 132.99555192 99.75 135.875 C99.06196289 136.06586182 98.37392578 136.25672363 97.66503906 136.45336914 C77.08692812 141.53799642 55.3203573 140.23324595 34.3125 140.125 C22.989375 140.08375 11.66625 140.0425 0 140 C0 93.8 0 47.6 0 0 Z M41 34 C41 57.76 41 81.52 41 106 C71.34564262 107.98401159 71.34564262 107.98401159 98.22265625 95.95703125 C105.98692331 87.77002733 108.37890844 78.94741135 108.2109375 67.77734375 C107.53361918 58.85931918 105.10498602 50.68894121 99 44 C82.32625108 29.91994536 62.3650067 34 41 34 Z " fill="#FFFFFF" transform="translate(1705,119)"/>
<path d="M0 0 C16.17 0 32.34 0 49 0 C57.08428533 17.91404136 65.01107281 35.88158399 72.79116821 53.92913818 C73.13078583 54.71693665 73.47040344 55.50473511 73.8203125 56.31640625 C74.16162201 57.10823303 74.50293152 57.90005981 74.85458374 58.71588135 C78.39952984 66.93528406 81.97196847 75.14263842 85.55020142 83.34759521 C86.61641028 85.79280063 87.68167652 88.23841506 88.74682617 90.68408203 C91.86628776 97.84279372 94.99379069 104.99766359 98.15405273 112.13847351 C99.48000348 115.13461676 100.80244794 118.13230274 102.12493896 121.12997437 C103.04163436 123.20281834 103.96431306 125.27292777 104.88720703 127.34301758 C105.43682546 128.58792009 105.98615923 129.83294832 106.53515625 131.078125 C107.013479 132.15481445 107.49180176 133.23150391 107.98461914 134.34082031 C109 137 109 137 109 140 C94.81 140 80.62 140 66 140 C61.92841827 131.85683654 58.46647322 123.41857781 55 115 C34.21 114.67 13.42 114.34 -8 114 C-8.99 117.3 -9.98 120.6 -11 124 C-12.0083195 126.71142632 -13.03102818 129.38804126 -14.125 132.0625 C-14.38925781 132.72443359 -14.65351562 133.38636719 -14.92578125 134.06835938 C-16.86351657 138.86351657 -16.86351657 138.86351657 -18 140 C-21.10251201 140.08874135 -24.1826812 140.11518455 -27.28515625 140.09765625 C-28.21597519 140.0962413 -29.14679413 140.09482635 -30.1058197 140.09336853 C-33.09141191 140.08775172 -36.07693029 140.0751964 -39.0625 140.0625 C-41.08137913 140.05748716 -43.10025943 140.05292388 -45.11914062 140.04882812 C-50.07945572 140.03777683 -55.03971532 140.02050095 -60 140 C-59.32134595 135.1505012 -57.40424384 131.02578505 -55.421875 126.59765625 C-55.05926071 125.77662918 -54.69664642 124.95560211 -54.32304382 124.10969543 C-53.54307143 122.34516723 -52.76082396 120.58164326 -51.97653198 118.81903076 C-50.31647353 115.08818456 -48.66726703 111.35257422 -47.01731873 107.61724854 C-46.18469959 105.73267328 -45.35149736 103.84835554 -44.51771545 101.96429443 C-41.11959928 94.28403854 -37.76654287 86.58543735 -34.4375 78.875 C-33.4077834 76.49338956 -32.37783051 74.11188127 -31.34765625 71.73046875 C-30.95601288 70.82506348 -30.95601288 70.82506348 -30.55645752 69.90136719 C-26.84419811 61.32360615 -23.10963083 52.75553866 -19.375 44.1875 C-19.01317627 43.3573941 -18.65135254 42.52728821 -18.27856445 41.67202759 C-12.21663921 27.76761442 -6.12045251 13.87877259 0 0 Z M23 36 C20.43412512 42.38942035 17.87090674 48.77990155 15.30957031 55.17114258 C14.4371418 57.34717185 13.56409574 59.52295363 12.69042969 61.69848633 C11.43784382 64.81787959 10.18745068 67.93814379 8.9375 71.05859375 C8.34690796 72.52733192 8.34690796 72.52733192 7.74438477 74.02574158 C7.20382446 75.37702904 7.20382446 75.37702904 6.65234375 76.75561523 C6.33257568 77.55281479 6.01280762 78.35001434 5.68334961 79.17137146 C4.94165807 80.83076514 4.94165807 80.83076514 5 82 C17.54 82 30.08 82 43 82 C38.48637464 69.89689507 38.48637464 69.89689507 33.7890625 57.875 C33.53119965 57.23175781 33.27333679 56.58851563 33.00765991 55.92578125 C32.21511553 53.94984289 31.4201331 51.97489781 30.625 50 C30.07405301 48.62767069 29.52327127 47.25527504 28.97265625 45.8828125 C27.65032661 42.58778055 26.32581524 39.29363127 25 36 C24.34 36 23.68 36 23 36 Z " fill="#FFFFFF" transform="translate(1579,119)"/>
<path d="M0 0 C16.17 0 32.34 0 49 0 C53.41755039 9.4661794 57.75670523 18.90870823 61.875 28.5 C63.01195042 31.13718097 64.15060473 33.77362572 65.2890625 36.41015625 C65.58607056 37.09856094 65.88307861 37.78696564 66.18908691 38.49623108 C69.85367141 46.98640041 73.55256688 55.46159878 77.25 63.9375 C77.96511213 65.57738201 78.68019991 67.21727463 79.39526367 68.85717773 C82.36939874 75.67755952 85.34448925 82.4975244 88.31982422 89.31738281 C90.24127083 93.72162094 92.1623061 98.12603831 94.08312988 102.5305481 C95.15239938 104.98202599 96.22218296 107.43327909 97.29199219 109.88452148 C98.59243784 112.86469477 99.88998441 115.84610213 101.18505859 118.82861328 C102.38706594 121.59677756 103.59929165 124.36013122 104.81884766 127.12060547 C105.37545778 128.39154365 105.93194259 129.66253672 106.48828125 130.93359375 C106.97466064 132.03630615 107.46104004 133.13901855 107.9621582 134.27514648 C109 137 109 137 109 140 C94.81 140 80.62 140 66 140 C56 118.33333333 56 118.33333333 56 114 C34.88 114 13.76 114 -8 114 C-8.33 115.65 -8.66 117.3 -9 119 C-9.56566768 120.62330691 -10.17164343 122.23300491 -10.8125 123.828125 C-11.16570313 124.70984375 -11.51890625 125.5915625 -11.8828125 126.5 C-12.25148438 127.4075 -12.62015625 128.315 -13 129.25 C-13.36867188 130.17296875 -13.73734375 131.0959375 -14.1171875 132.046875 C-16.86414717 138.86414717 -16.86414717 138.86414717 -18 140 C-21.10251201 140.08874135 -24.1826812 140.11518455 -27.28515625 140.09765625 C-28.21597519 140.0962413 -29.14679413 140.09482635 -30.1058197 140.09336853 C-33.09141191 140.08775172 -36.07693029 140.0751964 -39.0625 140.0625 C-41.08137913 140.05748716 -43.10025943 140.05292388 -45.11914062 140.04882812 C-50.07945572 140.03777683 -55.03971532 140.02050095 -60 140 C-57.99868667 133.63400261 -55.61743212 127.53466067 -52.9296875 121.4296875 C-52.53635727 120.52772141 -52.14302704 119.62575531 -51.73777771 118.69645691 C-50.45380074 115.75437655 -49.16441879 112.81469892 -47.875 109.875 C-46.97122352 107.80672298 -46.06782691 105.73827992 -45.16479492 103.66967773 C-43.32680914 99.46073744 -41.48680148 95.25269064 -39.64501953 91.04541016 C-37.2566491 85.58860742 -34.87453921 80.12910382 -32.49609375 74.66796875 C-32.1446933 73.86115662 -31.79329285 73.05434448 -31.4312439 72.2230835 C-30.73494745 70.62433626 -30.03866833 69.02558148 -29.34240723 67.42681885 C-27.62912264 63.49369659 -25.91419023 59.56129319 -24.19921875 55.62890625 C-23.86080963 54.85291077 -23.52240051 54.07691528 -23.17373657 53.27740479 C-22.47795414 51.68194223 -21.78216341 50.0864833 -21.08636475 48.49102783 C-17.97695753 41.36117578 -14.86782175 34.23120545 -11.75912476 27.1010437 C-10.65380536 24.56606328 -9.54822402 22.03119722 -8.44262695 19.49633789 C-7.766426 17.94548084 -7.0902372 16.39461849 -6.4140625 14.84375 C-6.11172195 14.15075302 -5.80938141 13.45775604 -5.49787903 12.74375916 C-5.21192368 12.08775223 -4.92596832 11.4317453 -4.63134766 10.75585938 C-4.26524887 9.91637756 -4.26524887 9.91637756 -3.89175415 9.05993652 C-2.58598435 6.04363107 -1.29473869 3.02105695 0 0 Z M23 36 C20.43412512 42.38942035 17.87090674 48.77990155 15.30957031 55.17114258 C14.4371418 57.34717185 13.56409574 59.52295363 12.69042969 61.69848633 C11.43784382 64.81787959 10.18745068 67.93814379 8.9375 71.05859375 C8.34690796 72.52733192 8.34690796 72.52733192 7.74438477 74.02574158 C7.20382446 75.37702904 7.20382446 75.37702904 6.65234375 76.75561523 C6.33257568 77.55281479 6.01280762 78.35001434 5.68334961 79.17137146 C4.94165807 80.83076514 4.94165807 80.83076514 5 82 C17.54 82 30.08 82 43 82 C40.96571905 75.89715714 38.85843606 69.96363272 36.42578125 64.02734375 C36.09708542 63.21882462 35.76838959 62.41030548 35.42973328 61.57728577 C34.39329827 59.02960474 33.3529733 56.48353407 32.3125 53.9375 C31.60325623 52.19606916 30.89426952 50.45453361 30.18554688 48.71289062 C28.45999682 44.47404557 26.73095956 40.23663876 25 36 C24.34 36 23.68 36 23 36 Z " fill="#FFFFFF" transform="translate(758,119)"/>
<path d="M0 0 C16.17 0 32.34 0 49 0 C57.05033221 17.25071188 57.05033221 17.25071188 60.1640625 24.37890625 C60.5181871 25.18578384 60.87231171 25.99266144 61.23716736 26.82398987 C62.36826564 29.40269981 63.49673907 31.98254753 64.625 34.5625 C65.4256195 36.38984641 66.22632054 38.2171571 67.02709961 40.04443359 C72.07165764 51.5619788 77.08978175 63.09077407 82.07861328 74.63256836 C85.17359935 81.79197787 88.28175874 88.94545676 91.40234375 96.09375 C91.78298477 96.96587128 92.16362579 97.83799255 92.55580139 98.73654175 C94.42856239 103.02691554 96.30248093 107.31677884 98.17797852 111.60595703 C100.12729254 116.0669139 102.0663616 120.53222943 104 125 C104.27392578 125.62998901 104.54785156 126.25997803 104.83007812 126.90905762 C105.55925587 128.59048392 106.27994509 130.27558427 107 131.9609375 C107.391875 132.87407715 107.78375 133.7872168 108.1875 134.72802734 C109 137 109 137 109 140 C94.81 140 80.62 140 66 140 C60.30769231 127.47692308 60.30769231 127.47692308 58.1875 121.9375 C57.76855469 120.85339844 57.34960938 119.76929688 56.91796875 118.65234375 C56 116 56 116 56 114 C34.88 114 13.76 114 -8 114 C-8.33 115.65 -8.66 117.3 -9 119 C-9.57990757 120.70666146 -10.19783459 122.40074664 -10.84765625 124.08203125 C-11.17000244 124.9222583 -11.49234863 125.76248535 -11.82446289 126.62817383 C-12.23301514 127.67900146 -12.64156738 128.7298291 -13.0625 129.8125 C-14.361875 133.174375 -15.66125 136.53625 -17 140 C-31.19 140 -45.38 140 -60 140 C-57.95680316 133.87040948 -55.84409477 128.07270533 -53.2265625 122.20703125 C-52.86677811 121.39166397 -52.50699371 120.57629669 -52.13630676 119.73622131 C-51.36784556 117.99579516 -50.59758418 116.25616288 -49.82565308 114.51727295 C-48.18888346 110.83003782 -46.5610161 107.13889492 -44.93266296 103.44793701 C-44.11092768 101.58547935 -43.28875416 99.72321499 -42.46614075 97.86114502 C-39.08881127 90.21378444 -35.75226921 82.54967821 -32.4375 74.875 C-28.88346821 66.65210235 -25.32049964 58.4333167 -21.73828125 50.22265625 C-21.18151955 48.94642395 -21.18151955 48.94642395 -20.61351013 47.64440918 C-18.80121456 43.49084908 -16.9879599 39.33771033 -15.17358398 35.18505859 C-10.06375938 23.47793313 -5.03212719 11.74163011 0 0 Z M24 35 C19.85345581 43.76739398 16.22509811 52.72136214 12.64135742 61.72851562 C11.67504493 64.15629229 10.70400508 66.58214097 9.73242188 69.0078125 C9.11691222 70.54936928 8.50166767 72.09103195 7.88671875 73.6328125 C7.45089729 74.72168259 7.45089729 74.72168259 7.00627136 75.83255005 C5.60735207 78.82809644 5.60735207 78.82809644 5 82 C17.54 82 30.08 82 43 82 C40.76234857 75.18529542 40.76234857 75.18529542 38.2824707 68.48999023 C37.83234367 67.34982704 37.83234367 67.34982704 37.37312317 66.18663025 C37.06050034 65.4018782 36.7478775 64.61712616 36.42578125 63.80859375 C36.09708542 62.97787857 35.76838959 62.14716339 35.42973328 61.29127502 C34.39292355 58.67244452 33.35277408 56.05495602 32.3125 53.4375 C31.6032931 51.64787463 30.8943067 49.85816186 30.18554688 48.06835938 C28.45957593 43.71122616 26.73061122 39.35529211 25 35 C24.67 35 24.34 35 24 35 Z " fill="#FFFFFF" transform="translate(1254,119)"/>
<path d="M0 0 C0.86825912 0.00222061 1.73651825 0.00444122 2.63108826 0.00672913 C3.61202957 0.00680466 4.59297089 0.00688019 5.6036377 0.00695801 C6.6702916 0.01211929 7.7369455 0.01728058 8.83592224 0.02259827 C10.46520912 0.02472069 10.46520912 0.02472069 12.12741089 0.02688599 C15.61230674 0.03250403 19.09713941 0.04505959 22.58201599 0.05775452 C24.93813486 0.06276719 27.29425473 0.0673305 29.65037537 0.07142639 C35.44011063 0.08247933 41.2298088 0.09923501 47.01951599 0.12025452 C47.30858826 0.78815002 47.59766052 1.45604553 47.89549255 2.1441803 C61.24301057 32.97746226 74.63980602 63.78939218 88.06776428 94.58772278 C89.12910508 97.0224024 90.18997729 99.45728569 91.25071716 101.89222717 C94.25717816 108.7925031 97.26769452 115.69084837 100.29685974 122.58119202 C101.01494812 124.21906677 101.01494812 124.21906677 101.74754333 125.89002991 C102.60551149 127.84627892 103.46628374 129.80130181 104.33055115 131.754776 C104.69326111 132.58307922 105.05597107 133.41138245 105.42967224 134.26478577 C105.74041687 134.96966125 106.0511615 135.67453674 106.37132263 136.40077209 C107.01951599 138.12025452 107.01951599 138.12025452 107.01951599 140.12025452 C92.49951599 140.12025452 77.97951599 140.12025452 63.01951599 140.12025452 C59.71951599 131.87025452 56.41951599 123.62025452 53.01951599 115.12025452 C32.22951599 115.12025452 11.43951599 115.12025452 -9.98048401 115.12025452 C-13.28048401 123.37025452 -16.58048401 131.62025452 -19.98048401 140.12025452 C-33.84048401 140.12025452 -47.70048401 140.12025452 -61.98048401 140.12025452 C-61.13108316 135.02384945 -60.13127123 131.76154033 -58.05860901 127.15150452 C-57.61477371 126.15562065 -57.61477371 126.15562065 -57.16197205 125.13961792 C-56.52420065 123.71055443 -55.88330106 122.28288366 -55.23957825 120.85649109 C-53.86004838 117.79933842 -52.49590312 114.73539792 -51.13066101 111.67184448 C-50.42919728 110.09824132 -49.72694161 108.52499095 -49.02391052 106.9520874 C-45.82967108 99.80233667 -42.70758553 92.62300381 -39.60548401 85.43275452 C-38.54587775 82.98080582 -37.48606519 80.52894793 -36.42579651 78.07728577 C-36.15489197 77.4507309 -35.88398743 76.82417603 -35.60487366 76.17863464 C-31.55587028 66.8198261 -27.47269097 57.47584814 -23.39363098 48.13011169 C-19.59530668 39.4274331 -15.80308745 30.72233926 -12.04298401 22.00306702 C-11.58393677 20.93949982 -11.58393677 20.93949982 -11.11561584 19.85444641 C-9.68289782 16.53478353 -8.25242158 13.21419253 -6.82618713 9.89173889 C-6.3305426 8.74253967 -5.83489807 7.59334045 -5.32423401 6.40931702 C-4.6774469 4.90425598 -4.6774469 4.90425598 -4.01759338 3.36878967 C-2.53476969 0.15391061 -2.53476969 0.15391061 0 0 Z M21.01951599 35.12025452 C18.45122721 41.49039521 15.88827848 47.86266482 13.3290863 54.23646545 C12.45727816 56.40590897 11.58423453 58.57485641 10.70994568 60.74330139 C9.45573892 63.85464423 8.20594093 66.9677259 6.95701599 70.08119202 C6.36642395 71.54218826 6.36642395 71.54218826 5.76390076 73.03269958 C5.40352722 73.93348236 5.04315369 74.83426514 4.67185974 75.76234436 C4.35209167 76.5573233 4.03232361 77.35230225 3.7028656 78.17137146 C2.90922082 80.09060903 2.90922082 80.09060903 3.01951599 82.12025452 C15.22951599 82.12025452 27.43951599 82.12025452 40.01951599 82.12025452 C39.10126196 77.52898436 37.71332985 73.52511909 35.96482849 69.22181702 C35.66261383 68.4686319 35.36039917 67.71544678 35.04902649 66.93943787 C34.08488933 64.539731 33.11470076 62.1425218 32.14451599 59.74525452 C31.49960626 58.14123997 30.8550712 56.53707473 30.21092224 54.93275452 C27.54276323 48.30021873 24.85649391 41.68270853 22.01951599 35.12025452 C21.68951599 35.12025452 21.35951599 35.12025452 21.01951599 35.12025452 Z " fill="#FFFFFF" transform="translate(1031.980484008789,118.87974548339844)"/>
<path d="M0 0 C6.27963318 -0.25436226 12.55793264 -0.42898665 18.84155273 -0.54931641 C20.97682319 -0.59948952 23.11175202 -0.66764925 25.24584961 -0.75439453 C42.8891472 -1.45338325 42.8891472 -1.45338325 47.75830078 1.89916992 C49.61062151 4.5187775 50.78558063 7.03541033 52 10 C53.08818224 11.75051846 54.20869312 13.48132242 55.359375 15.19140625 C56.49159388 16.98050005 57.62175259 18.77089904 58.75 20.5625 C59.9696486 22.4872349 61.18970592 24.41171086 62.41015625 26.3359375 C63.01102051 27.28436523 63.61188477 28.23279297 64.23095703 29.20996094 C66.87248429 33.37603511 69.52276031 37.53623574 72.1875 41.6875 C72.63254883 42.3875415 73.07759766 43.08758301 73.53613281 43.80883789 C75.48508073 46.83712739 77.3949325 49.51820509 80 52 C80.36738281 50.95585937 80.36738281 50.95585937 80.7421875 49.890625 C82.18809833 46.56772434 84.07581095 43.71736183 86.125 40.75 C91.71421056 32.52424887 97.05019849 24.14223265 102.37744141 15.74511719 C103.03276855 14.71547852 103.6880957 13.68583984 104.36328125 12.625 C104.94376221 11.70976562 105.52424316 10.79453125 106.12231445 9.8515625 C106.74195068 8.91054687 107.36158691 7.96953125 108 7 C108.32452652 6.37854599 108.64905304 5.75709198 108.9834137 5.11680603 C110.65706886 2.21802876 111.82539153 0.33126312 115.14073181 -0.60372925 C117.82593203 -0.81165452 120.42202895 -0.78740339 123.11328125 -0.68359375 C124.08283249 -0.67368912 125.05238373 -0.66378448 126.05131531 -0.65357971 C129.1399332 -0.61447659 132.22496157 -0.52666298 135.3125 -0.4375 C137.40945378 -0.40238084 139.50646343 -0.37044289 141.60351562 -0.34179688 C146.73705449 -0.2647276 151.86791931 -0.14397292 157 0 C155.46318281 4.50281042 152.99070513 8.14285282 150.265625 11.9921875 C149.26531763 13.42608969 148.2660193 14.86069618 147.26757812 16.29589844 C146.73624268 17.05817749 146.20490723 17.82045654 145.6574707 18.60583496 C142.77005844 22.77661244 139.94113695 26.98663968 137.109375 31.1953125 C136.51072632 32.08393982 135.91207764 32.97256714 135.29528809 33.88812256 C133.44618238 36.63329367 131.5979787 39.37907011 129.75 42.125 C127.91969981 44.84435887 126.08915104 47.56352613 124.25511169 50.28036499 C123.03031836 52.10258443 121.81342102 53.93013537 120.60438538 55.7628479 C117.50544823 60.43337652 114.31713913 64.91519446 110.78686523 69.27099609 C99.17617611 83.99001126 97.94968409 95.9707943 98.5625 114.375 C98.5896062 116.87623663 98.60982691 119.37755768 98.62304688 121.87890625 C98.65707163 127.92730647 98.83081758 133.94798081 99 140 C85.47 140 71.94 140 58 140 C58.15984375 136.52210938 58.3196875 133.04421875 58.484375 129.4609375 C59.33947631 103.07229577 59.31959479 83.32802655 41.828125 62.890625 C35.0327657 54.89102482 29.4512603 46.02028722 23.67346191 37.27618408 C20.62034705 32.67112891 17.51915683 28.09884345 14.421875 23.5234375 C13.29979212 21.85927739 12.17803406 20.19489821 11.05664062 18.53027344 C9.16698261 15.7262695 7.27060117 12.9271384 5.36523438 10.13378906 C4.63111328 9.0506543 3.89699219 7.96751953 3.140625 6.8515625 C2.52219727 5.94486816 1.90376953 5.03817383 1.26660156 4.10400391 C0 2 0 2 0 0 Z " fill="#FFFFFF" transform="translate(841,119)"/>
<path d="M0 0 C13.86 0 27.72 0 42 0 C42.08021762 21.11060331 42.08021762 21.11060331 42.09765625 30.19335938 C42.10955576 36.3616078 42.12354675 42.52979617 42.15087891 48.69799805 C42.1728034 53.67767426 42.18460944 58.65728596 42.18975449 63.63700676 C42.19341539 65.52534944 42.20056279 67.41368908 42.21146011 69.30200386 C42.32770231 90.30317761 41.41582217 110.97300454 26.3125 127.25 C12.5911191 140.18879263 -6.60419867 143.40754685 -24.75 143.3125 C-25.88598633 143.30686035 -27.02197266 143.3012207 -28.19238281 143.29541016 C-46.43571865 143.03330818 -64.64194408 139.4508202 -78 126 C-87.56748048 114.7714986 -93 101.91151823 -93 87 C-79.14 87 -65.28 87 -51 87 C-49.68 90.63 -48.36 94.26 -47 98 C-43.82349087 102.62037691 -41.1381277 105.84558193 -35.6015625 107.56640625 C-26.92509627 109.01248395 -16.77625519 109.4641465 -9 105 C-3.49804623 100.31590422 -1.44952009 94.97873317 -0.80433273 87.83285522 C-0.71687299 85.49691009 -0.6873649 83.16764951 -0.68115234 80.83007812 C-0.67110672 79.95108856 -0.6610611 79.072099 -0.65071106 78.16647339 C-0.62005031 75.28807168 -0.60289183 72.40976224 -0.5859375 69.53125 C-0.56721207 67.52485367 -0.54763764 65.51846511 -0.5272522 63.51208496 C-0.47607028 58.25147084 -0.43637013 52.99083122 -0.39910889 47.73010254 C-0.35191669 41.40730331 -0.29037887 35.08462919 -0.23126221 28.76193237 C-0.14322003 19.17467247 -0.07333384 9.58743449 0 0 Z " fill="#FFFFFF" transform="translate(651,119)"/>
<path d="M0 0 C8.25 0 16.5 0 25 0 C29.51042933 15.62148693 33.81217519 31.28911934 38 47 C42.12410579 35.04946619 45.83535459 23.00376139 49.37109375 10.8659668 C49.86222656 9.18434448 49.86222656 9.18434448 50.36328125 7.46875 C50.65501221 6.46263672 50.94674316 5.45652344 51.24731445 4.41992188 C52 2 52 2 53 0 C60.26 0 67.52 0 75 0 C75.99902344 3.22523438 76.99804688 6.45046875 78.02734375 9.7734375 C78.99331996 12.88782391 79.95988772 16.00202614 80.92651367 19.11621094 C81.59933406 21.28496404 82.2715368 23.45390886 82.94311523 25.62304688 C83.90707686 28.7361805 84.87323871 31.84862378 85.83984375 34.9609375 C86.14091537 35.934935 86.441987 36.9089325 86.75218201 37.91244507 C87.032397 38.81322784 87.312612 39.71401062 87.60131836 40.64208984 C87.97105019 41.83455826 87.97105019 41.83455826 88.34825134 43.05111694 C88.96502848 45.04710027 88.96502848 45.04710027 90 47 C90.22217445 46.13889366 90.22217445 46.13889366 90.44883728 45.26039124 C91.98575263 39.30638625 93.52746615 33.35363886 95.07202148 27.40161133 C95.6484597 25.17764926 96.22365756 22.95336532 96.79760742 20.72875977 C97.62095467 17.53837798 98.44869929 14.34916568 99.27734375 11.16015625 C99.66332985 9.65860741 99.66332985 9.65860741 100.05711365 8.12672424 C100.29728714 7.20584518 100.53746063 6.28496613 100.78491211 5.33618164 C100.99587021 4.52121719 101.20682831 3.70625275 101.42417908 2.86659241 C102 1 102 1 103 0 C104.85369611 -0.08737645 106.71067541 -0.10698153 108.56640625 -0.09765625 C109.69111328 -0.09443359 110.81582031 -0.09121094 111.97460938 -0.08789062 C113.15861328 -0.07951172 114.34261719 -0.07113281 115.5625 -0.0625 C116.75037109 -0.05798828 117.93824219 -0.05347656 119.16210938 -0.04882812 C122.10812226 -0.03699675 125.05403681 -0.02051287 128 0 C123.53648777 15.18368497 118.76615364 30.26183348 113.91186523 45.32470703 C112.87651508 48.5383183 111.84357815 51.75268323 110.81198406 54.96750069 C109.81767695 58.0647909 108.82086182 61.16127331 107.82421875 64.2578125 C107.45447433 65.40968048 107.08472992 66.56154846 106.70378113 67.74832153 C106.36284927 68.80477875 106.02191742 69.86123596 105.6706543 70.94970703 C105.37120407 71.8797757 105.07175385 72.80984436 104.76322937 73.76809692 C104 76 104 76 103 78 C94.42 78 85.84 78 77 78 C76.07316406 74.97972656 75.14632813 71.95945312 74.19140625 68.84765625 C73.2952704 65.93506938 72.3980549 63.02281718 71.50073242 60.1105957 C70.87590239 58.0806704 70.25220189 56.05039706 69.62963867 54.01977539 C68.73650481 51.10732058 67.83936546 48.19612639 66.94140625 45.28515625 C66.52260948 43.91485008 66.52260948 43.91485008 66.09535217 42.51686096 C65.83515793 41.67606491 65.57496368 40.83526886 65.30688477 39.96899414 C64.96380028 38.85313683 64.96380028 38.85313683 64.61378479 37.71473694 C64.13520623 35.99272558 64.13520623 35.99272558 63 35 C58.71 49.19 54.42 63.38 50 78 C41.42 78 32.84 78 24 78 C19.66293931 64.74143705 15.3294923 51.48172002 11.00634766 38.21861267 C9.26869027 32.88788213 7.5286293 27.55797251 5.78161621 22.2303009 C4.84975362 19.38421374 3.92513905 16.53577852 3 13.6875 C2.68095703 12.72013916 2.36191406 11.75277832 2.03320312 10.75610352 C1.75412109 9.89170654 1.47503906 9.02730957 1.1875 8.13671875 C0.95417969 7.42217529 0.72085937 6.70763184 0.48046875 5.97143555 C0 4 0 4 0 0 Z " fill="#FFFFFF" transform="translate(1276,298)"/>
<path d="M0 0 C13.53 0 27.06 0 41 0 C41 46.2 41 92.4 41 140 C27.47 140 13.94 140 0 140 C0 93.8 0 47.6 0 0 Z " fill="#FFFFFF" transform="translate(1878,119)"/>
<path d="M0 0 C8.46868493 8.46868493 11.84507732 18.90555633 12.25 30.6875 C11.96239392 43.15043026 7.82785658 53.50752329 -1.15234375 62.14453125 C-13.5300433 72.28901821 -29.93603031 72.93035788 -45.1875 71.8125 C-55.47738437 70.38672655 -64.79317466 66.20682534 -72.1875 58.8125 C-80.3943659 47.54817426 -82.19888275 36.44538533 -81.1875 22.8125 C-79.47706263 12.73550461 -74.28709979 4.48250609 -66.1875 -1.71875 C-46.76426921 -15.47687181 -18.95131863 -13.0058069 0 0 Z M-52.1875 15.75 C-56.83701775 22.86957405 -56.94312478 29.46284619 -56.1875 37.8125 C-54.56147958 43.76225654 -51.24491856 47.44088763 -46.1875 50.8125 C-38.96060165 53.67598802 -32.22002836 53.78453834 -24.9375 51.1875 C-19.50465916 48.80008702 -16.70528295 45.93418125 -14.0859375 40.546875 C-11.92342313 33.96530954 -11.92766268 25.52367861 -14.875 19.1875 C-18.46447902 13.32176599 -23.65392009 10.45179171 -30.1875 8.8125 C-38.04637655 7.63508709 -46.7897268 9.60606403 -52.1875 15.75 Z " fill="#FFFFFF" transform="translate(993.1875,306.1875)"/>
<path d="M0 0 C12.2203125 -0.12375 12.2203125 -0.12375 24.6875 -0.25 C27.23170654 -0.28641602 29.77591309 -0.32283203 32.3972168 -0.36035156 C58.46008235 -0.58006557 58.46008235 -0.58006557 68.625 7.3125 C74.31067425 13.03415953 75.17867715 17.52379527 75.4375 25.4375 C75.2851339 31.62356379 74.84159668 36.09469557 71 41 C69.64497838 42.27273823 68.25765274 43.51175985 66.84375 44.71875 C66.12380859 45.33685547 65.40386719 45.95496094 64.66210938 46.59179688 C64.11361328 47.05650391 63.56511719 47.52121094 63 48 C63.47421387 48.76666992 63.94842773 49.53333984 64.43701172 50.32324219 C66.20139108 53.17755058 67.96424136 56.03279154 69.72607422 58.88867188 C70.48783603 60.12277133 71.25019928 61.35649974 72.01318359 62.58984375 C73.11194977 64.36620628 74.20852149 66.14390708 75.3046875 67.921875 C75.96452637 68.99018555 76.62436523 70.05849609 77.30419922 71.15917969 C78.6467617 73.4082521 79.87792551 75.63616308 81 78 C76.79285562 78.26221814 72.58781109 78.42147604 68.375 78.5625 C66.59029297 78.67561523 66.59029297 78.67561523 64.76953125 78.79101562 C56.14437663 79.00784912 56.14437663 79.00784912 52.99658203 76.2355957 C51.42443634 73.89496269 50.20361881 71.54773494 49 69 C48.16446511 67.62683726 47.31364899 66.26281519 46.4453125 64.91015625 C45.6696182 63.62896783 44.8961457 62.34643136 44.125 61.0625 C43.7228125 60.40443359 43.320625 59.74636719 42.90625 59.06835938 C40 54.23943718 40 54.23943718 40 52 C34.39 52 28.78 52 23 52 C23 60.58 23 69.16 23 78 C15.41 78 7.82 78 0 78 C0 52.26 0 26.52 0 0 Z M23 17 C23 22.94 23 28.88 23 35 C37.46550509 36.06654167 37.46550509 36.06654167 50.73828125 31.67578125 C52.67945426 29.09756694 52.41859548 26.99179712 52.28125 23.8671875 C52.1076346 21.909491 52.1076346 21.909491 50.875 20.125 C45.00857603 16.60514562 39.2369821 16.75238122 32.625 16.875 C31.69816406 16.88402344 30.77132813 16.89304687 29.81640625 16.90234375 C27.54415841 16.92576899 25.2720447 16.96163527 23 17 Z " fill="#FFFFFF" transform="translate(1499,298)"/>
<path d="M0 0 C1.21516635 1.03074402 2.40531212 2.0920646 3.5625 3.1875 C4.06652344 3.6515625 4.57054687 4.115625 5.08984375 4.59375 C8.9194373 8.58984761 9.77616537 12.90614803 10.5625 18.1875 C-7.56479844 20.83106436 -7.56479844 20.83106436 -12.4375 20.1875 C-14.6875 17.8125 -14.6875 17.8125 -16.4375 15.1875 C-20.08031741 12.60312833 -24.08021801 12.85542488 -28.375 12.875 C-29.07818359 12.85888672 -29.78136719 12.84277344 -30.50585938 12.82617188 C-35.01205681 12.82194863 -37.8120287 13.49854966 -41.4375 16.1875 C-41.1075 17.8375 -40.7775 19.4875 -40.4375 21.1875 C-33.4923186 22.88836075 -26.55332936 24.3669082 -19.51635742 25.62573242 C2.44717706 29.58967453 2.44717706 29.58967453 8.5625 37.1875 C12.90001562 43.69377344 13.24500991 49.51413859 12.5625 57.1875 C10.8626396 63.36229409 6.95514919 67.84683313 1.5625 71.1875 C-13.68570325 78.12454596 -34.63016705 79.09009675 -50.4375 73.1875 C-57.76320617 69.99082821 -63.26890602 65.68079657 -66.4375 58.1875 C-67.22180595 54.8734229 -67.85693521 51.54277526 -68.4375 48.1875 C-64.52139516 48.01323244 -60.60628503 47.90665845 -56.6875 47.8125 C-55.57632812 47.76222656 -54.46515625 47.71195312 -53.3203125 47.66015625 C-50.25211292 47.60470686 -47.45410243 47.61713399 -44.4375 48.1875 C-42.046875 51.0234375 -42.046875 51.0234375 -40.4375 54.1875 C-35.9027653 57.24071626 -31.77476935 57.65279215 -26.4375 57.5625 C-25.75171875 57.57410156 -25.0659375 57.58570313 -24.359375 57.59765625 C-19.65751579 57.57073721 -16.46673583 56.56726741 -12.4375 54.1875 C-12.4375 52.5375 -12.4375 50.8875 -12.4375 49.1875 C-18.95865911 46.42614794 -25.1998842 45.30534174 -32.1875 44.3125 C-55.32325658 40.73832784 -55.32325658 40.73832784 -62.80078125 31.50390625 C-66.61450251 24.4571538 -66.69111872 16.41846317 -64.4375 8.8125 C-58.15876375 0.57165868 -50.77545181 -3.22190351 -40.734375 -5.3984375 C-27.59737162 -7.04834551 -11.24256852 -7.90298636 0 0 Z " fill="#FFFFFF" transform="translate(1175.4375,301.8125)"/>
<path d="M0 0 C22.77 0 45.54 0 69 0 C69 5.94 69 11.88 69 18 C54.15 18 39.3 18 24 18 C24 21.63 24 25.26 24 29 C37.86 29 51.72 29 66 29 C66 35.27 66 41.54 66 48 C52.14 48 38.28 48 24 48 C24 51.96 24 55.92 24 60 C39.51 60 55.02 60 71 60 C70 75 70 75 69 78 C46.23 78 23.46 78 0 78 C0 52.26 0 26.52 0 0 Z " fill="#FFFFFF" transform="translate(1588,298)"/>
<path d="M0 0 C7.59 0 15.18 0 23 0 C23 9.24 23 18.48 23 28 C34.55 28 46.1 28 58 28 C58 18.76 58 9.52 58 0 C65.59 0 73.18 0 81 0 C81 25.74 81 51.48 81 78 C73.41 78 65.82 78 58 78 C58 68.1 58 58.2 58 48 C46.45 48 34.9 48 23 48 C23 57.9 23 67.8 23 78 C15.41 78 7.82 78 0 78 C0 52.26 0 26.52 0 0 Z " fill="#FFFFFF" transform="translate(819,298)"/>
<path d="M0 0 C22.44 0 44.88 0 68 0 C68 5.94 68 11.88 68 18 C53.15 18 38.3 18 23 18 C23 21.63 23 25.26 23 29 C37.19 29 51.38 29 66 29 C66 35.27 66 41.54 66 48 C51.81 48 37.62 48 23 48 C23 51.96 23 55.92 23 60 C38.84 60 54.68 60 71 60 C69 77 69 77 68 78 C65.88318683 78.0942174 63.76319242 78.11742761 61.64428711 78.11352539 C60.63306337 78.11370619 60.63306337 78.11370619 59.60141087 78.11389065 C57.41002209 78.11314174 55.2187174 78.10551454 53.02734375 78.09765625 C51.678101 78.09618676 50.32885769 78.09516609 48.97961426 78.09460449 C43.9655675 78.0893524 38.95153293 78.0753913 33.9375 78.0625 C22.738125 78.041875 11.53875 78.02125 0 78 C0 52.26 0 26.52 0 0 Z " fill="#FFFFFF" transform="translate(1200,298)"/>
<path d="M0 0 C7.92 0 15.84 0 24 0 C24.03738281 3.53976562 24.07476563 7.07953125 24.11328125 10.7265625 C24.15951734 14.1620088 24.21074357 17.59734705 24.26245117 21.03271484 C24.29566646 23.41676241 24.32370892 25.80088797 24.34643555 28.18505859 C24.38004318 31.61589739 24.43236407 35.04602363 24.48828125 38.4765625 C24.49467117 39.53928375 24.5010611 40.602005 24.50764465 41.69692993 C24.61631854 47.19033839 24.8647928 51.2786448 28 56 C32.32424803 60.04526428 36.98331028 60.29387729 42.68359375 60.21875 C47.16541677 59.7955087 50.69186186 58.35174274 53.875 55.0625 C55.83977909 51.460405 56.13205151 48.10914504 56.20532227 44.04785156 C56.22526749 43.06713684 56.24521271 42.08642212 56.26576233 41.07598877 C56.29083107 39.4992337 56.29083107 39.4992337 56.31640625 37.890625 C56.33718735 36.80867859 56.35796844 35.72673218 56.37937927 34.61199951 C56.44472931 31.15806387 56.50369229 27.70405263 56.5625 24.25 C56.60569904 21.90754429 56.64931378 19.5650962 56.69335938 17.22265625 C56.80117755 11.48184717 56.90035965 5.74098017 57 0 C64.59 0 72.18 0 80 0 C80.099382 7.63139105 80.17171217 15.26239966 80.21972656 22.89428711 C80.23975721 25.48680185 80.26698967 28.07927188 80.30175781 30.67163086 C80.35065141 34.41271033 80.37305539 38.1531889 80.390625 41.89453125 C80.41127014 43.04081497 80.43191528 44.18709869 80.45318604 45.36811829 C80.45555222 53.985556 79.04014255 62.27089549 73.8125 69.375 C62.84195476 79.61417556 49.3813003 80.64925814 35.05078125 80.28125 C25.21277698 79.84424814 16.42691416 77.79452345 9 71 C0.38772743 60.66527291 -0.16370604 49.62661813 -0.09765625 36.71875 C-0.0962413 35.66465942 -0.09482635 34.61056885 -0.09336853 33.52453613 C-0.08780508 30.18299429 -0.07525941 26.84152133 -0.0625 23.5 C-0.05748027 21.22395931 -0.0529182 18.94791755 -0.04882812 16.671875 C-0.03870178 11.11453593 -0.0191193 5.55734439 0 0 Z " fill="#FFFFFF" transform="translate(1017,298)"/>
<path d="M0 0 C1.16781006 0.00523682 2.33562012 0.01047363 3.53881836 0.01586914 C4.79887695 0.0190918 6.05893555 0.02231445 7.35717773 0.02563477 C8.6976732 0.03399136 10.03816799 0.04245632 11.37866211 0.05102539 C12.72306153 0.05603879 14.06746271 0.06060197 15.41186523 0.06469727 C18.71334151 0.07653051 22.01473014 0.09301568 25.31616211 0.11352539 C32.41292376 15.50485546 39.21820053 31.01328979 45.92175293 46.57850647 C47.71642407 50.73994604 49.53506093 54.89022137 51.36694336 59.03540039 C51.83487305 60.09766846 52.30280273 61.15993652 52.78491211 62.25439453 C53.65948119 64.23727019 54.53817583 66.21833304 55.42163086 68.19726562 C55.80577148 69.07068604 56.18991211 69.94410645 56.58569336 70.84399414 C56.92189697 71.60091553 57.25810059 72.35783691 57.60449219 73.13769531 C58.31616211 75.11352539 58.31616211 75.11352539 58.31616211 78.11352539 C50.06616211 78.11352539 41.81616211 78.11352539 33.31616211 78.11352539 C31.66616211 73.82352539 30.01616211 69.53352539 28.31616211 65.11352539 C10.99116211 64.61852539 10.99116211 64.61852539 -6.68383789 64.11352539 C-7.67383789 67.08352539 -8.66383789 70.05352539 -9.68383789 73.11352539 C-10.34383789 74.76352539 -11.00383789 76.41352539 -11.68383789 78.11352539 C-19.60383789 78.11352539 -27.52383789 78.11352539 -35.68383789 78.11352539 C-34.9566982 74.47782692 -34.34646641 72.00573041 -32.90893555 68.73583984 C-32.5437532 67.89836212 -32.17857086 67.0608844 -31.80232239 66.19802856 C-31.40486313 65.30002533 -31.00740387 64.40202209 -30.59790039 63.47680664 C-30.18460983 62.53191376 -29.77131927 61.58702087 -29.34550476 60.61349487 C-28.00430555 57.5490751 -26.65655805 54.48758208 -25.30883789 51.42602539 C-23.47972554 47.25254692 -21.65396809 43.0776042 -19.82836914 38.90258789 C-19.38045517 37.87942978 -18.9325412 36.85627167 -18.47105408 35.80210876 C-14.45065593 26.6079602 -10.52626814 17.3764868 -6.66870117 8.11279297 C-6.2779541 7.17846436 -5.88720703 6.24413574 -5.48461914 5.28149414 C-5.15631104 4.49025146 -4.82800293 3.69900879 -4.48974609 2.88378906 C-3.23867119 0.13566906 -3.17493697 0.13429871 0 0 Z M10.31616211 21.11352539 C7.01616211 29.36352539 3.71616211 37.61352539 0.31616211 46.11352539 C7.24616211 46.11352539 14.17616211 46.11352539 21.31616211 46.11352539 C16.65163002 33.47554501 16.65163002 33.47554501 11.31616211 21.11352539 C10.98616211 21.11352539 10.65616211 21.11352539 10.31616211 21.11352539 Z " fill="#FFFFFF" transform="translate(1431.683837890625,297.886474609375)"/>
<path d="M0 0 C1.92963176 2.89444765 3.12276174 5.52715304 4.42578125 8.7421875 C4.89306641 9.89203125 5.36035156 11.041875 5.84179688 12.2265625 C6.56979492 14.03253906 6.56979492 14.03253906 7.3125 15.875 C7.78623047 17.0403125 8.25996094 18.205625 8.74804688 19.40625 C10.17709436 22.93292806 11.59190501 26.46490714 13 30 C13.4851709 31.21333008 13.9703418 32.42666016 14.47021484 33.67675781 C14.92734863 34.83788086 15.38448242 35.99900391 15.85546875 37.1953125 C16.26821045 38.23961426 16.68095215 39.28391602 17.10620117 40.35986328 C18 43 18 43 18 46 C6.12 46 -5.76 46 -18 46 C-16.87479783 39.24878699 -16.87479783 39.24878699 -15.64892578 36.18530273 C-15.37839386 35.50116806 -15.10786194 34.81703339 -14.82913208 34.11216736 C-14.53747162 33.39323807 -14.24581116 32.67430878 -13.9453125 31.93359375 C-13.64309784 31.17708023 -13.34088318 30.42056671 -13.0295105 29.64112854 C-12.39188401 28.04905444 -11.75129451 26.45816418 -11.10791016 24.8684082 C-10.12788769 22.44464175 -9.15897878 20.01665 -8.19140625 17.58789062 C-7.56836486 16.03619456 -6.94468815 14.48475341 -6.3203125 12.93359375 C-6.0327005 12.21264023 -5.7450885 11.49168671 -5.44876099 10.74888611 C-3.90456995 6.9503694 -2.23203295 3.46104241 0 0 Z " fill="#FFFFFF" transform="translate(331,307)"/>
<path d="M0 0 C0.66 0 1.32 0 2 0 C5.21743246 7.88210829 8.42914689 15.76650904 11.63623047 23.65283203 C12.77448046 26.44649608 13.91852731 29.23762877 15.06640625 32.02734375 C15.60695509 33.3514873 16.14733992 34.67569782 16.6875 36 C17.14511719 37.11375 17.60273438 38.2275 18.07421875 39.375 C19 42 19 42 19 45 C7.12 45 -4.76 45 -17 45 C-16.22300678 40.33804066 -15.4295709 37.17422236 -13.671875 32.9296875 C-12.96611328 31.21265625 -12.96611328 31.21265625 -12.24609375 29.4609375 C-11.75238281 28.27757812 -11.25867188 27.09421875 -10.75 25.875 C-10.27175781 24.71484375 -9.79351562 23.5546875 -9.30078125 22.359375 C-7.87426507 18.90326263 -6.43868144 15.45106416 -5 12 C-4.51337891 10.83114258 -4.02675781 9.66228516 -3.52539062 8.45800781 C-2.35113583 5.63830571 -1.1760186 2.81896682 0 0 Z " fill="#FFFFFF" transform="translate(335,139)"/>
</svg>
